<?xml version="1.0" encoding="UTF-8" standalone="no"?>
<!-- Created with Inkscape (http://www.inkscape.org/) -->

<svg
   width="3840"
   height="2160"
   viewBox="0 0 3840 2160"
   version="1.1"
   id="svg5"
   inkscape:version="1.1.2 (0a00cf5339, 2022-02-04, custom)"
   sodipodi:docname="Purple Mountains.svg"
   inkscape:export-filename="/home/clygro/Purple Mountains.png"
   inkscape:export-xdpi="877.71002"
   inkscape:export-ydpi="877.71002"
   xmlns:inkscape="http://www.inkscape.org/namespaces/inkscape"
   xmlns:sodipodi="http://sodipodi.sourceforge.net/DTD/sodipodi-0.dtd"
   xmlns="http://www.w3.org/2000/svg"
   xmlns:svg="http://www.w3.org/2000/svg">
  <sodipodi:namedview
     id="namedview7"
     pagecolor="#ffffff"
     bordercolor="#666666"
     borderopacity="1.0"
     inkscape:pageshadow="2"
     inkscape:pageopacity="0.0"
     inkscape:pagecheckerboard="0"
     inkscape:document-units="px"
     showgrid="true"
     inkscape:zoom="0.088388348"
     inkscape:cx="-927.72409"
     inkscape:cy="763.67532"
     inkscape:window-width="1916"
     inkscape:window-height="1022"
     inkscape:window-x="1280"
     inkscape:window-y="96"
     inkscape:window-maximized="1"
     inkscape:current-layer="layer1">
    <inkscape:grid
       type="xygrid"
       id="grid824" />
  </sodipodi:namedview>
  <defs
     id="defs2" />
  <g
     inkscape:label="Layer 1"
     inkscape:groupmode="layer"
     id="layer1">
    <path
       style="fill:#f47d9b;stroke:none;stroke-width:1px;stroke-linecap:butt;stroke-linejoin:miter;stroke-opacity:1;fill-opacity:1"
       d="m 0,1120 800,-560 1040,640 1040,-400 960,320 V 0 H 0 Z"
       id="path859" />
    <path
       style="fill:#6b00ff;stroke:none;stroke-width:1px;stroke-linecap:butt;stroke-linejoin:miter;stroke-opacity:1;fill-opacity:1"
       d="m 0,1120 800,-560 1040,640 1040,-400 960,320 v 400 L 2880,1360 1440,1600 560,1280 0,1440 v -320"
       id="path1026" />
    <path
       style="fill:#5600cc;fill-opacity:1;stroke:none;stroke-width:1px;stroke-linecap:butt;stroke-linejoin:miter;stroke-opacity:1"
       d="m 0,1380 560,-160 880,320 1440,-240 960,160 v 700 H 0 v -780"
       id="path1325"
       sodipodi:nodetypes="cccccccc" />
    <path
       style="fill:#ffffff;stroke:none;stroke-width:1px;stroke-linecap:butt;stroke-linejoin:miter;stroke-opacity:1;fill-opacity:1"
       d="M 2320,560 1760,720 1120,560 2080,320 2320,560"
       id="path1690" />
    <path
       style="fill:#ffffff;stroke:none;stroke-width:1px;stroke-linecap:butt;stroke-linejoin:miter;stroke-opacity:1;fill-opacity:1"
       d="M 2560,640 3440,480 3760,720 3280,880 2560,640"
       id="path1791" />
    <path
       style="fill:#ffffff;fill-opacity:1;stroke:none;stroke-width:1px;stroke-linecap:butt;stroke-linejoin:miter;stroke-opacity:1"
       d="M 120,650 920,410 600,250 360,330 Z"
       id="path1859" />
    <path
       style="fill:#ececec;fill-opacity:1;stroke:none;stroke-width:1px;stroke-linecap:butt;stroke-linejoin:miter;stroke-opacity:1"
       d="M 470,545 635,380 650,275 920,410 Z"
       id="path1927" />
    <path
       style="fill:#ececec;stroke:none;stroke-width:1px;stroke-linecap:butt;stroke-linejoin:miter;stroke-opacity:1;fill-opacity:1"
       d="M 2155,395 2140,520 1760,720 2320,560 2160,400"
       id="path2259" />
    <path
       style="fill:none;stroke:none;stroke-width:1px;stroke-linecap:butt;stroke-linejoin:miter;stroke-opacity:1"
       d="m 3175,845 105,15 280,-290 200,150 -480,160 z"
       id="path2327" />
    <path
       style="fill:#ececec;stroke:none;stroke-width:1px;stroke-linecap:butt;stroke-linejoin:miter;stroke-opacity:1;fill-opacity:1"
       d="m 2995,785 285,35 260,-180 20,-70 200,150 -480,160 z"
       id="path2397" />
    <path
       style="fill:#ececec;stroke:none;stroke-width:1px;stroke-linecap:butt;stroke-linejoin:miter;stroke-opacity:1;fill-opacity:1"
       d="m 2620,900 260,-100 105,35 -40,-5 -15,20 -35,-25 -35,30 -50,15 -55,25 -30,30 -40,-15 -65,-10"
       id="path2496" />
    <path
       style="fill:#b3b3b3;fill-opacity:1;stroke:none;stroke-width:1px;stroke-linecap:butt;stroke-linejoin:miter;stroke-opacity:1"
       d="m 2620,900 105,10 70,-40 65,-15 35,-30 35,25 15,-20 40,5 150,50 -75,5 -40,40 -90,-30 -50,50 -40,-20 -30,20 -40,-20 -30,20 c -32.6923,-12.22145 -75.9104,-30.84563 -120,-50 z"
       id="path2572"
       sodipodi:nodetypes="cccccccccccccccccc" />
    <path
       style="fill:#ffffff;stroke:none;stroke-width:1px;stroke-linecap:butt;stroke-linejoin:miter;stroke-opacity:1;fill-opacity:1"
       d="m 650,665 40,-10 50,-20 35,30 20,-20 35,5 15,-20 5,20 25,10 c 0,0 28,-16 28,-16 l 27,-4 -130,-80 -150,105"
       id="path2954" />
    <path
       style="fill:#b3b3b3;stroke:none;stroke-width:1px;stroke-linecap:butt;stroke-linejoin:miter;stroke-opacity:1;fill-opacity:1"
       d="m 650,665 40,-10 50,-20 35,30 20,-20 35,5 15,-20 5,20 25,10 28,-16 27,-4 52,32 -27,-7 c 0,0 -10,20 -10,20 l -20,-20 -10,40 c 0,0 -25,-20 -25,-20 l -55,25 -50,-20 -45,30 -15,-30 -40,25 c 0,0 -20,-15 -25,-15 -5,0 -35,10 -35,10 l -15,-17 z"
       id="path3073" />
    <path
       style="fill:#ffcd00;fill-opacity:1;stroke:none;stroke-width:1px;stroke-linecap:butt;stroke-linejoin:miter;stroke-opacity:1"
       d="M 0.00450132,391.49593 280.0045,191.49593 535,95 l 235.0045,86.49593 310,60 560,-50 290,50 410,-60 440,80 530,60 380,-130 150,25 L 3840,0 H 0 l 0.00450132,391.49593"
       id="path3978"
       sodipodi:nodetypes="ccccccccccccccc" />
    <path
       style="fill:#cca400;fill-opacity:1;stroke:none;stroke-width:1px;stroke-linecap:butt;stroke-linejoin:miter;stroke-opacity:1"
       d="M 0,390 280,191.49897 535,95 l 235,86 310,60 560,-50 290,49 410,-59 970,139 380,-129 v 0 l 150,25 v 49 65 L 3680,300 3280,480 2700,400 2380,440 2120,300 1520,380 1240,320 1060,360 660,220 500,200 340,280 160,480 0,555 Z"
       id="path4775"
       sodipodi:nodetypes="cccccccccccccccccccccccccccc" />
  </g>
</svg>
